<svg id="Layer_1" xmlns="http://www.w3.org/2000/svg" xmlns:xlink="http://www.w3.org/1999/xlink" viewBox="0 0 2500 1000" preserveAspectRatio="none"><style type="text/css">.st0{fill:#FFB100;}</style><path id="star_full" class="st0" d="M250 12.6l-70.2 165.6L0 193.7l136.3 118-40.8 175.7 154.5-93 154.5 93-41-175.6 136.5-118L320.2 178 250 12.6z"/><use xlink:href="#star_full"/><use xlink:href="#star_full" x="500"/><use xlink:href="#star_full" x="1000"/><use xlink:href="#star_full" x="1500"/><use xlink:href="#star_full" x="2000"/><path id="star_empty" class="st0" d="M404.5 487.4l-154.5-93-154.5 93 41-175.6L0 193.8 179.8 178 250 12.6l70.2 165.6L500 193.7l-136.4 118 41 175.7zm-318-265.6l89.2 77.2L149 413.7 250 353l101 60.7L324.3 299l89-77.2-117.4-10-46-108.3-46 108.2-117.4 10z"/><use xlink:href="#star_empty" y="500"/><use xlink:href="#star_empty" x="500" y="500"/><use xlink:href="#star_empty" x="1000" y="500"/><use xlink:href="#star_empty" x="1500" y="500"/><use xlink:href="#star_empty" x="2000" y="500"/></svg>
